%
M48
M72
T01C0.0240
T02C0.0335
T03C0.0400
%
T01
X6900Y4300
X8100Y3900
X9100Y5300
X9000Y6200
X8500Y6600
X7900Y7600
X7100Y7600
X6600Y8600
X6200Y9600
X7300Y10000
X5300Y7700
X4200Y6900
X6000Y6000
X6700Y6300
X9700Y7600
X10300Y6600
X11400Y6100
X12100Y5000
X11200Y4300
X12200Y3800
X12400Y7800
X11700Y8500
X11100Y9200
X10600Y8600
X3500Y9100
X3500Y9600
T02
X1850Y9691
X1850Y8509
T03
X1850Y5600
X1850Y6600
X8600Y1350
X9600Y1350
X11350Y1350
X12350Y1350
M30
