G75*
%MOIN*%
%OFA0B0*%
%FSLAX24Y24*%
%IPPOS*%
%LPD*%
%AMOC8*
5,1,8,0,0,1.08239X$1,22.5*
%
%ADD10C,0.0000*%
D10*
X000100Y000100D02*
X000100Y011346D01*
X013220Y011346D01*
X013220Y000100D01*
X000100Y000100D01*
X001683Y008509D02*
X001685Y008534D01*
X001691Y008559D01*
X001700Y008583D01*
X001713Y008605D01*
X001730Y008625D01*
X001749Y008642D01*
X001770Y008656D01*
X001794Y008666D01*
X001818Y008673D01*
X001844Y008676D01*
X001869Y008675D01*
X001894Y008670D01*
X001918Y008661D01*
X001941Y008649D01*
X001961Y008634D01*
X001979Y008615D01*
X001994Y008594D01*
X002005Y008571D01*
X002013Y008547D01*
X002017Y008522D01*
X002017Y008496D01*
X002013Y008471D01*
X002005Y008447D01*
X001994Y008424D01*
X001979Y008403D01*
X001961Y008384D01*
X001941Y008369D01*
X001918Y008357D01*
X001894Y008348D01*
X001869Y008343D01*
X001844Y008342D01*
X001818Y008345D01*
X001794Y008352D01*
X001770Y008362D01*
X001749Y008376D01*
X001730Y008393D01*
X001713Y008413D01*
X001700Y008435D01*
X001691Y008459D01*
X001685Y008484D01*
X001683Y008509D01*
X001683Y009691D02*
X001685Y009716D01*
X001691Y009741D01*
X001700Y009765D01*
X001713Y009787D01*
X001730Y009807D01*
X001749Y009824D01*
X001770Y009838D01*
X001794Y009848D01*
X001818Y009855D01*
X001844Y009858D01*
X001869Y009857D01*
X001894Y009852D01*
X001918Y009843D01*
X001941Y009831D01*
X001961Y009816D01*
X001979Y009797D01*
X001994Y009776D01*
X002005Y009753D01*
X002013Y009729D01*
X002017Y009704D01*
X002017Y009678D01*
X002013Y009653D01*
X002005Y009629D01*
X001994Y009606D01*
X001979Y009585D01*
X001961Y009566D01*
X001941Y009551D01*
X001918Y009539D01*
X001894Y009530D01*
X001869Y009525D01*
X001844Y009524D01*
X001818Y009527D01*
X001794Y009534D01*
X001770Y009544D01*
X001749Y009558D01*
X001730Y009575D01*
X001713Y009595D01*
X001700Y009617D01*
X001691Y009641D01*
X001685Y009666D01*
X001683Y009691D01*
M02*
