G75*
%MOIN*%
%OFA0B0*%
%FSLAX24Y24*%
%IPPOS*%
%LPD*%
%AMOC8*
5,1,8,0,0,1.08239X$1,22.5*
%
%ADD10R,0.0276X0.0354*%
%ADD11R,0.0315X0.0315*%
%ADD12R,0.0217X0.0472*%
%ADD13R,0.0394X0.1811*%
%ADD14R,0.0630X0.1339*%
%ADD15R,0.0551X0.0138*%
%ADD16R,0.0748X0.0709*%
%ADD17R,0.0315X0.0472*%
%ADD18R,0.0335X0.0117*%
%ADD19R,0.0110X0.0276*%
%ADD20R,0.0340X0.0940*%
%ADD21R,0.0709X0.0630*%
%ADD22R,0.0512X0.0512*%
%ADD23R,0.0453X0.0394*%
%ADD24R,0.0630X0.0551*%
D10*
X006094Y007100D03*
X006606Y007100D03*
X006606Y008100D03*
X006094Y008100D03*
X006094Y009100D03*
X006606Y009100D03*
X006606Y010100D03*
X006094Y010100D03*
X004606Y009100D03*
X004094Y009100D03*
X004094Y008100D03*
X004606Y008100D03*
X008094Y008100D03*
X008606Y008100D03*
X008606Y007100D03*
X008094Y007100D03*
X010094Y008100D03*
X010606Y008100D03*
X010606Y009100D03*
X010094Y009100D03*
X010094Y010100D03*
X010606Y010100D03*
X008606Y010100D03*
X008094Y010100D03*
X008094Y009100D03*
X008606Y009100D03*
D11*
X004645Y010100D03*
X004055Y010100D03*
D12*
X004226Y006362D03*
X004974Y006362D03*
X004974Y005338D03*
X004600Y005338D03*
X004226Y005338D03*
X009976Y005612D03*
X010724Y005612D03*
X010724Y004588D03*
X010350Y004588D03*
X009976Y004588D03*
D13*
X005994Y003307D03*
X005206Y003307D03*
D14*
X004261Y001259D03*
X006939Y001259D03*
D15*
X002893Y002088D03*
X002893Y002344D03*
X002893Y002600D03*
X002893Y002856D03*
X002893Y003112D03*
D16*
X001850Y001025D03*
X001850Y004175D03*
D17*
X009996Y007100D03*
X010704Y007100D03*
D18*
X008181Y005494D03*
X008181Y005297D03*
X008181Y005100D03*
X008181Y004903D03*
X008181Y004706D03*
X007019Y004706D03*
X007019Y004903D03*
X007019Y005100D03*
X007019Y005297D03*
X007019Y005494D03*
D19*
X007502Y005691D03*
X007698Y005691D03*
X007698Y004509D03*
X007502Y004509D03*
D20*
X007600Y005100D03*
D21*
X012350Y008799D03*
X012350Y009901D03*
D22*
X012350Y004441D03*
X012350Y003259D03*
D23*
X002962Y008116D03*
X002962Y009100D03*
X002962Y010084D03*
X000738Y010084D03*
X000738Y009100D03*
X000738Y008116D03*
D24*
X012350Y007151D03*
X012350Y006049D03*
M02*
